<?xml version="1.0" encoding="UTF-8" standalone="no"?><!DOCTYPE svg PUBLIC "-//W3C//DTD SVG 1.1//EN" "http://www.w3.org/Graphics/SVG/1.1/DTD/svg11.dtd"><svg width="100%" height="100%" viewBox="0 0 1024 1024" version="1.1" xmlns="http://www.w3.org/2000/svg" xmlns:xlink="http://www.w3.org/1999/xlink" xml:space="preserve" xmlns:serif="http://www.serif.com/" style="fill-rule:evenodd;clip-rule:evenodd;stroke-linejoin:round;stroke-miterlimit:2;"><rect x="131.979" y="0" width="760.043" height="490" style="fill:#323232;"/><rect x="131.979" y="534" width="760.043" height="490" style="fill:#323232;"/><path d="M351.765,490c-8.502,-5.564 -16.728,-11.403 -24.678,-17.519c-25.952,-20.054 -47.088,-43.746 -63.407,-71.075c-16.318,-27.329 -24.478,-59.475 -24.478,-96.437c0,-36.963 8.16,-69.994 24.478,-99.092c16.319,-29.099 37.651,-53.675 63.997,-73.729c26.346,-20.055 56.231,-35.292 89.655,-45.713c33.424,-10.42 67.044,-15.63 100.861,-15.63c37.356,-0 73.336,6.193 107.94,18.58c34.603,12.386 65.275,29.786 92.014,52.2c26.739,22.414 48.169,49.546 64.291,81.397c16.123,31.851 24.577,67.437 25.363,106.76l-112.068,-0c-3.146,-24.773 -9.241,-47.285 -18.285,-67.536c-9.044,-20.251 -21.037,-37.651 -35.98,-52.2c-14.942,-14.55 -32.735,-25.855 -53.38,-33.916c-20.644,-8.061 -43.942,-12.091 -69.895,-12.091c-20.841,-0 -41.19,2.949 -61.047,8.847c-19.858,5.898 -37.455,14.746 -52.791,26.543c-15.728,11.796 -28.213,26.345 -37.454,43.647c-9.241,17.302 -13.861,37.356 -13.861,60.163c0.393,24.773 6.685,45.712 18.875,62.817c12.19,17.105 27.722,31.556 46.596,43.353c18.482,11.797 38.635,21.627 60.458,29.492c21.824,7.864 42.37,14.746 61.638,20.644c27.829,8.589 55.657,18.754 83.486,30.495l-272.328,-0Z" style="fill:#fff;fill-rule:nonzero;"/><path d="M705.126,534c7.386,5.204 11.331,8.825 18.329,14.57c25.953,20.054 46.892,44.63 62.817,73.729c15.926,29.098 23.889,62.719 23.889,100.861c-0,38.536 -8.553,72.156 -25.658,100.862c-17.105,28.705 -39.224,52.495 -66.356,71.369c-27.133,19.268 -57.804,33.719 -92.014,43.353c-34.211,9.634 -68.421,14.451 -102.631,14.451c-40.895,0 -81.102,-6.881 -120.621,-20.644c-39.519,-13.763 -73.828,-33.621 -102.926,-59.573c-25.953,-22.414 -46.498,-48.661 -61.638,-78.743c-15.139,-30.081 -23.298,-63.604 -24.478,-100.566l111.479,-0c3.539,26.739 10.813,50.43 21.824,71.074c11.01,20.645 25.166,38.045 42.468,52.201c17.301,14.549 37.257,25.461 59.868,32.735c22.61,7.275 47.285,10.912 74.024,10.912c21.234,0 42.173,-2.654 62.817,-7.962c20.644,-5.309 39.027,-13.665 55.149,-25.068c16.122,-11.011 29.295,-25.068 39.519,-42.173c10.224,-17.106 15.336,-37.455 15.336,-61.048c-0,-26.346 -5.997,-48.563 -17.99,-66.651c-11.993,-18.088 -27.427,-33.424 -46.302,-46.007c-18.875,-12.19 -39.617,-22.414 -62.227,-30.672c-22.611,-8.257 -44.336,-15.728 -65.177,-22.413c-19.939,-6.474 -44.516,-16.333 -64.881,-24.597c45.896,0.218 265.326,0.008 265.38,-0Z" style="fill:#fff;"/></svg>